<svg width="355" height="376" viewBox="0 0 355 376" fill="none" xmlns="http://www.w3.org/2000/svg">
<path d="M354.976 209.529C355.014 211.192 355.053 212.855 354.706 214.887C353.579 215.512 352.854 215.913 352.093 216C342.347 217.117 332.605 218.278 322.845 219.253C308.439 220.691 294.017 221.955 279.609 223.374C276.376 223.692 273.175 224.341 269.959 224.838C269.597 224.888 269.234 224.938 268.241 224.99C258.197 225.807 248.776 226.53 239.377 227.484C236.078 227.819 234.811 230.161 235.673 233.422C236.448 236.354 237.079 239.336 238.051 242.201C243.458 258.14 248.95 274.051 254.413 289.972C254.451 290.843 254.489 291.713 254.217 293.024C251.731 296.694 249.123 295.713 246.779 293.919C235.936 285.615 225.192 277.181 214.376 268.84C208.814 264.551 203.203 260.325 197.561 256.143C195.549 254.653 193.527 254.535 192.267 257.14C191.292 259.156 190.534 261.278 189.689 263.356C184.019 277.294 178.356 291.235 172.682 305.172C164.817 324.492 157.006 343.835 149.027 363.107C147.199 367.522 144.78 371.691 142.633 375.973C141.764 376.012 140.895 376.05 139.581 375.772C138.405 373.943 137.339 372.504 136.991 370.908C132.053 348.213 127.253 325.488 122.331 302.79C120.049 292.269 117.575 281.79 115.188 271.292C115.139 270.928 115.089 270.565 115.036 269.601C112.34 256.612 109.592 244.237 106.999 231.829C106.406 228.993 105.156 228.166 102.36 228.864C95.8337 230.496 89.2422 231.864 82.7062 233.458C57.8576 239.519 33.0406 245.713 8.1477 251.585C5.68005 252.167 2.47042 254.252 0.0275407 250.977C-0.0109296 249.58 -0.0493971 248.182 0.212367 246.333C23.4739 221.991 46.4352 198.101 69.3965 174.211C68.94 173.778 67.37 172.53 65.5883 171.8C57.7744 168.599 49.9036 165.538 42.0453 162.447C33.4522 159.066 24.7973 155.833 16.302 152.223C14.8229 151.594 13.1687 149.43 13.1438 147.948C13.1248 146.814 15.3705 145.05 16.9146 144.585C23.0954 142.724 29.3856 141.221 35.6533 139.659C51.0111 135.83 66.3885 132.08 81.7335 128.201C84.331 127.544 85.8851 126.325 84.4445 122.954C81.9049 117.011 79.9876 110.804 77.6994 104.75C71.1621 87.4516 64.5538 70.1804 58.003 52.8873C52.1077 37.3249 46.3247 21.719 40.3044 6.20547C39.3304 3.69571 39.534 1.87391 41.2509 0.0272466C42.3816 -0.0112758 43.5122 -0.0497984 45.0923 0.219698C53.9505 6.51782 62.4211 12.4229 70.7541 18.5169C85.1984 29.0801 99.5881 39.7188 113.943 50.4042C125.966 59.3537 137.873 68.4585 149.913 77.3857C152.022 78.9495 153.913 79.6761 156.111 76.4268C160.123 70.4937 165.006 65.155 169.471 59.5251C177.319 49.6312 185.187 39.7524 192.902 29.7554C194.642 27.5003 196.765 25.6466 199.215 26.9695C200.671 27.7555 201.515 30.5853 201.738 32.5959C202.533 39.7709 202.842 46.9983 203.525 54.1879C204.494 64.4046 205.934 74.5856 206.601 84.8193C207.128 92.9008 207.567 93.5699 215.256 91.5048C215.383 91.4708 215.486 91.3475 215.613 91.3154C231.086 87.394 246.543 83.405 262.041 79.5793C279.797 75.196 297.589 70.9578 315.366 66.6566C316.761 66.6181 318.156 66.5797 320.023 66.8628C322.388 68.9545 322.506 70.84 320.845 72.8263C319.393 74.563 317.984 76.3396 316.46 78.011C307.522 87.8127 298.591 97.6208 289.59 107.364C281.666 115.941 273.642 124.426 265.685 132.974C262.948 135.913 260.35 138.985 257.566 141.878C253.23 146.384 253.475 147.893 258.803 151.09C272.057 159.045 285.25 167.102 298.457 175.133C317.301 186.591 336.137 198.063 354.976 209.529ZM147.877 118.565C141.052 112.832 134.331 106.967 127.314 101.481C125.943 100.409 123.047 100.042 121.57 100.783C120.526 101.307 120.057 104.39 120.436 106.082C121.437 110.547 122.99 114.894 124.414 119.258C126.843 126.705 129.497 134.083 131.753 141.581C133.103 146.068 131.974 147.909 128.224 148.533C121.312 149.684 114.343 150.545 107.494 151.984C104.766 152.556 100.536 151.164 99.7127 155.369C98.86 159.725 102.956 160.859 105.754 162.47C110.785 165.367 116.065 167.832 121.069 170.771C125.022 173.094 125.302 176.124 122.107 179.385C119.84 181.698 117.343 183.784 114.991 186.016C112.641 188.247 110.107 190.349 108.129 192.88C107.212 194.054 106.728 196.458 107.327 197.67C107.879 198.786 110.142 199.567 111.656 199.575C114.178 199.587 116.715 198.925 119.225 198.437C125.172 197.282 131.095 196.006 137.049 194.894C139.925 194.357 141.53 195.467 142 198.637C143.147 206.381 144.599 214.079 145.905 221.8C147.573 231.649 149.121 241.52 150.983 251.331C151.246 252.715 153.001 254.814 154.047 254.803C155.457 254.788 156.938 253.147 158.205 252.001C158.735 251.522 158.797 250.522 159.067 249.758C164.145 235.357 169.22 220.956 174.299 206.556C176.474 200.391 178.556 199.881 183.449 204.364C186.637 207.285 189.668 210.389 192.967 213.176C196.711 216.339 200.005 215.135 200.687 210.338C201.025 207.968 200.67 205.496 200.593 203.071C200.485 199.696 200.204 196.32 200.257 192.949C200.304 189.964 201.685 188.121 205.063 188.391C211.109 188.875 217.172 189.159 223.213 189.69C236.236 190.833 249.243 192.158 262.275 193.179C263.821 193.3 265.479 191.99 267.085 191.343C265.909 189.969 265.006 187.936 263.518 187.322C245.178 179.751 226.766 172.359 208.346 164.984C198.525 161.051 198.25 160.099 204.846 151.564C207.324 148.357 209.985 145.251 212.103 141.814C214.944 137.201 213.411 134.685 208.1 134.698C203.1 134.709 198.101 134.806 193.101 134.861C187.339 134.924 186.932 134.633 186.541 128.816C185.87 118.837 185.319 108.849 184.717 98.8656C184.569 96.4111 184.621 93.7171 181.519 93.0363C178.472 92.3677 177.727 95.0415 176.661 96.9745C171.959 105.499 167.25 114.022 162.7 122.628C160.95 125.94 158.806 126.471 155.864 124.398C153.326 122.61 150.83 120.761 147.877 118.565Z" fill="#6534DF"/>
</svg>
